<?xml version="1.0" encoding="UTF-8"?>
<svg id="_レイヤー_1" data-name="レイヤー_1" xmlns="http://www.w3.org/2000/svg" version="1.1" viewBox="0 0 1000 500">
  <!-- Generator: Adobe Illustrator 30.1.0, SVG Export Plug-In . SVG Version: 2.1.1 Build 136)  -->
  <defs>
    <style>
      .st0 {
        fill: none;
        stroke: #cca276;
        stroke-miterlimit: 10;
        stroke-width: 12px;
      }

      .st1 {
        fill: #cca276;
      }
    </style>
  </defs>
  <g>
    <rect class="st0" x="100" y="90" width="240" height="240"/>
    <rect class="st0" x="100" y="330" width="240" height="80"/>
    <rect class="st0" x="420" y="90" width="480" height="240"/>
    <rect class="st0" x="420" y="330" width="480" height="80"/>
  </g>
  <g>
    <path class="st1" d="M161.12,248.65v-78.65h25.62c5.09,0,9.61,1.01,13.54,3.03,3.93,2.03,7,4.83,9.22,8.43,2.21,3.59,3.31,7.71,3.31,12.36,0,5.17-1.48,9.68-4.44,13.54-2.96,3.86-6.84,6.69-11.63,8.49l19.22,32.81h-10.45l-18.09-31.01c-.52.08-1.05.11-1.57.11h-15.17v30.9h-9.55ZM170.68,208.99h17.41c2.84,0,5.39-.66,7.64-1.97,2.24-1.31,4.06-3.11,5.45-5.39s2.08-4.89,2.08-7.81c0-4.49-1.56-8.15-4.66-10.95-3.11-2.81-7.14-4.22-12.08-4.22h-15.84v30.34Z"/>
    <path class="st1" d="M253.48,250c-5.47,0-10.3-1.26-14.49-3.76-4.2-2.51-7.47-5.98-9.83-10.4-2.36-4.42-3.54-9.51-3.54-15.28s1.18-10.86,3.54-15.28,5.62-7.88,9.77-10.4c4.16-2.51,8.93-3.76,14.32-3.76s9.77,1.29,13.6,3.88c3.82,2.58,6.78,6.2,8.88,10.84,2.09,4.65,3.15,10.11,3.15,16.4h-44.16c.37,6.14,2.32,10.94,5.84,14.38,3.52,3.45,7.98,5.17,13.37,5.17,3.97,0,7.32-.94,10.05-2.81,2.73-1.87,4.85-4.34,6.35-7.42l7.75,3.94c-1.43,2.92-3.31,5.47-5.67,7.64-2.36,2.17-5.13,3.86-8.32,5.06-3.19,1.2-6.73,1.8-10.62,1.8ZM235.39,214.72h33.82c-.22-3.22-1.07-5.99-2.53-8.32-1.46-2.32-3.35-4.11-5.67-5.39-2.32-1.28-4.94-1.91-7.86-1.91s-5.58.62-8.2,1.85c-2.62,1.24-4.8,3.04-6.52,5.39s-2.73,5.15-3.03,8.37Z"/>
  </g>
  <g>
    <path class="st1" d="M558.13,248.68v-77.13h9.37v68.65h36.36v8.48h-45.73Z"/>
    <path class="st1" d="M637.02,250c-5.36,0-10.1-1.23-14.21-3.69-4.12-2.46-7.33-5.86-9.64-10.2-2.31-4.33-3.47-9.33-3.47-14.98s1.16-10.65,3.47-14.98c2.31-4.34,5.51-7.73,9.59-10.2,4.08-2.46,8.76-3.69,14.05-3.69s9.59,1.27,13.33,3.8,6.65,6.08,8.71,10.64c2.05,4.56,3.08,9.91,3.08,16.09h-43.31c.37,6.02,2.28,10.73,5.73,14.1,3.45,3.38,7.82,5.07,13.12,5.07,3.89,0,7.18-.92,9.86-2.76,2.68-1.83,4.76-4.26,6.23-7.27l7.6,3.86c-1.4,2.87-3.25,5.36-5.56,7.49-2.32,2.13-5.04,3.78-8.16,4.96-3.13,1.17-6.6,1.76-10.42,1.76ZM619.28,215.4h33.17c-.22-3.16-1.04-5.88-2.48-8.16-1.43-2.27-3.29-4.04-5.56-5.29s-4.85-1.87-7.71-1.87-5.47.61-8.04,1.82c-2.57,1.22-4.7,2.98-6.39,5.29-1.69,2.31-2.68,5.05-2.97,8.21Z"/>
    <path class="st1" d="M690.46,250c-6.47,0-11.51-1.49-15.15-4.46-3.64-2.98-5.45-7.11-5.45-12.4,0-5.58,1.85-9.86,5.56-12.84,3.71-2.98,8.9-4.47,15.59-4.47h15.32c-.37-5.21-1.65-9.12-3.86-11.73-2.2-2.61-5.51-3.91-9.92-3.91-3.01,0-5.6.61-7.77,1.82-2.17,1.21-3.95,3.14-5.34,5.78l-7.94-3.08c1.39-2.57,3.08-4.79,5.07-6.67,1.98-1.87,4.3-3.3,6.94-4.3s5.65-1.49,9.03-1.49c5.14,0,9.38,1.01,12.73,3.03,3.34,2.02,5.86,4.99,7.55,8.93,1.69,3.93,2.5,8.8,2.43,14.6l-.11,29.86h-8.15l-.44-7.38c-1.61,2.79-3.78,4.94-6.5,6.45s-5.91,2.26-9.59,2.26ZM690.91,242.29c3.16,0,5.91-.68,8.26-2.04,2.35-1.36,4.17-3.29,5.45-5.78,1.29-2.5,1.93-5.51,1.93-9.04v-2.2h-13.55c-5.14,0-8.8.84-10.97,2.53-2.17,1.69-3.25,4.12-3.25,7.27,0,2.87,1.07,5.12,3.2,6.78,2.13,1.65,5.11,2.48,8.93,2.48Z"/>
    <path class="st1" d="M734.76,248.68v-47.49h-10.14v-7.6h10.14v-6.28c0-5.73,1.34-10.04,4.02-12.95,2.68-2.9,6.78-4.35,12.29-4.35,1.47,0,3.13.26,4.96.77,1.84.52,3.78,1.25,5.84,2.2l-3.3,6.95c-1.69-.66-3.13-1.17-4.3-1.54s-2.17-.55-2.97-.55c-2.57,0-4.5.83-5.79,2.48-1.29,1.65-1.93,4.21-1.93,7.66v5.62h15.98v7.6h-15.98v47.49h-8.82Z"/>
  </g>
</svg>