<?xml version="1.0" encoding="UTF-8"?>
<svg id="_レイヤー_1" data-name="レイヤー_1" xmlns="http://www.w3.org/2000/svg" xmlns:xlink="http://www.w3.org/1999/xlink" version="1.1" viewBox="0 0 1000 500">
  <!-- Generator: Adobe Illustrator 30.1.0, SVG Export Plug-In . SVG Version: 2.1.1 Build 136)  -->
  <defs>
    <style>
      .st0 {
        fill: none;
      }

      .st1 {
        fill: #009fe8;
      }

      .st2 {
        fill: #1d2087;
      }

      .st3 {
        fill: #fff000;
      }

      .st4 {
        fill: url(#_名称未設定グラデーション_505);
      }

      .st5 {
        fill: #e50012;
      }

      .st6 {
        fill: #e3007f;
      }
    </style>
    <linearGradient id="_名称未設定グラデーション_505" data-name="名称未設定グラデーション 505" x1="849.06" y1="145.38" x2="849.06" y2="354.68" gradientUnits="userSpaceOnUse">
      <stop offset="0" stop-color="#009fe8"/>
      <stop offset=".25" stop-color="#1d2087"/>
      <stop offset=".5" stop-color="#e3007f"/>
      <stop offset=".75" stop-color="#e50012"/>
      <stop offset="1" stop-color="#fff000"/>
    </linearGradient>
  </defs>
  <rect class="st0" x="450" y="200" width="100" height="100"/>
  <g>
    <path class="st1" d="M278.65,138.02c-40.03-8.57-82.38-6.16-119.55,11.9-31.52,15.31-57.38,42.96-68.66,76.29-11.01,32.54-5.07,70.87,15.81,98.22,23.34,30.57,60.53,42.8,98,42.48,20.01-.17,40.48-3.3,59.69-8.9,20.9-6.09,39.5-16.15,52.82-33.68,4.9-6.46,1.02-16.78-5.38-20.52-7.7-4.51-15.61-1.09-20.52,5.38,1.37-1.8-1.56,1.66-1.98,2.1-1.19,1.26-2.44,2.46-3.74,3.6-.74.65-1.5,1.31-2.28,1.91.56-.43,1.86-1.25-.55.33-1.68,1.1-3.34,2.21-5.07,3.22-3.07,1.78-6.26,3.41-9.53,4.79,2.04-.86-2.32.85-2.87,1.05-2.19.8-4.4,1.54-6.63,2.22-7.21,2.22-14.59,3.92-22,5.32-2.9.55-8.28,1.44-9.88,1.65-2.34.32-7.95.87-11.63,1.12-7.73.52-15.49.57-23.22.02-2.11-.15-4.21-.35-6.31-.59-2.65-.3.36.12-2.25-.34-4.11-.72-8.18-1.55-12.2-2.65-13.64-3.73-25.14-9.88-34.67-19.59-1.19-1.21-2.34-2.46-3.45-3.74-.63-.73-1.25-1.47-1.86-2.23.41.5,1.41,2-.3-.42-2.1-2.96-4.07-5.99-5.82-9.16-.82-1.48-1.6-2.98-2.33-4.5-.42-.87-.82-1.75-1.22-2.63.12.28.75,1.85.11.24-1.34-3.37-2.48-6.82-3.43-10.32-2.21-8.21-2.56-10.37-2.72-18.95-.06-3.38.05-6.77.36-10.14.09-.96.18-1.93.31-2.88-.09.66-.46,2.66.09-.31.35-1.9.71-3.8,1.16-5.68.79-3.33,1.77-6.61,2.92-9.84.33-.92.68-1.83,1.02-2.75.02-.06.93-2.28.35-.92-.64,1.52.58-1.25.72-1.56.41-.89.84-1.77,1.27-2.64,1.64-3.29,3.45-6.49,5.42-9.6.92-1.45,1.88-2.89,2.86-4.3.42-.61.86-1.2,1.29-1.81,2.7-3.82-.87,1.02.8-1.08,4.65-5.83,9.87-11.21,15.5-16.09,1.32-1.15,2.67-2.27,4.04-3.36-1.58,1.27,1.87-1.38,2.36-1.73,3.06-2.19,6.22-4.25,9.46-6.16,31.53-18.61,70.65-21.37,105.72-13.86,7.65,1.64,16.58-2.27,18.45-10.48,1.72-7.55-2.27-16.69-10.48-18.45h0Z"/>
    <path class="st4" d="M790.52,161.04c20.2,9.7,36.61,22.79,53.31,36.79,7.45,6.25,15.69,13.8,19.97,20.66.68,1.09,1.27,2.24,1.93,3.35.2.34,1.15,2.63.32.5.35.9.65,1.83.91,2.76-.02-.06.67,4.3.52,2.19s-.1,2.4-.1,2.23c.03-.72.71-2.61-.11.28-.27.97-.55,1.91-.89,2.86,1.19-3.27-.14-.04-.59.7-.03.04-2.26,3.24-.9,1.45s-1.19,1.28-1.2,1.3c-1.15,1.23-2.37,2.4-3.63,3.52-.81.72-1.65,1.4-2.47,2.1-.54.46-2.85,2.24-.6.52-1.78,1.36-3.6,2.67-5.4,3.99-7.34,5.37-14.95,10.7-20.69,17.85-14.68,18.26-13.01,42.79.71,61.19,15.81,21.2,40.73,31.29,64.4,41.08,7.27,3.01,16.81-3.25,18.45-10.48,1.99-8.75-2.69-15.23-10.48-18.45-8.78-3.63-18.34-7.67-27.55-12.89-1.94-1.1-3.85-2.24-5.73-3.44-1.16-.74-2.3-1.51-3.43-2.3-.33-.23-3.06-2.26-1.55-1.08-1.7-1.32-3.32-2.76-4.87-4.26-.94-.9-1.85-1.83-2.72-2.8-.53-.57-1.04-1.15-1.54-1.75.58.81.58.81-.01-.02-1.35-1.84-2.55-3.79-3.61-5.81-.46-.87-.93-1.78-1.31-2.69.9,2.14,0-.18-.09-.53-.3-1.17-.7-2.31-.97-3.49-.17-.76-.44-3.78-.24-.93-.07-.94-.12-1.87-.11-2.81,0-.6.66-4.49,0-1.58.21-.91.48-1.82.67-2.73.85-3.98-.72,1.04.36-1.08.46-.9,3.63-5.39,1.6-2.93,2.62-3.16,5.68-5.86,8.84-8.46,1.99-1.64-2.79,2.04.66-.52.72-.53,1.44-1.07,2.16-1.61,1.63-1.2,3.27-2.38,4.9-3.59,4.03-2.97,8.09-5.97,11.82-9.31,7.21-6.44,13.27-14.88,15.24-24.49,4.81-23.53-12.36-43.28-28.9-57.55-19.04-16.43-39.17-32.73-61.95-43.67-7.3-3.5-16.2-2.01-20.52,5.38-3.84,6.56-1.95,17,5.38,20.52h0Z"/>
    <path class="st6" d="M474.44,148.09c-3.63,67.92-2.65,136.03,2.91,203.82.64,7.8,6.44,15.38,15,15,7.58-.34,15.69-6.63,15-15-5.56-67.79-6.55-135.9-2.91-203.82.42-7.85-7.2-15.35-15-15-8.49.38-14.55,6.59-15,15h0Z"/>
    <path class="st5" d="M580.86,239.17c-31.73-7.05-52.09,28.76-59.16,54.46-7.09,25.76-4.11,58.29,25.1,68.15,6.54,2.21,13.63,2.74,20.44,3.58,6.81.84,13.66,1.55,20.53,1.55,13.78-.01,28.19-2.73,39.47-11.07,21.57-15.95,26.7-44.68,19.88-69.52-8.43-30.74-37.65-53.84-70.15-51.08-7.8.66-15.38,6.42-15,15,.34,7.56,6.63,15.71,15,15,9.43-.8,16.28.75,23.83,5.24.89.53,1.77,1.09,2.63,1.67.44.3,2.97,2.31,1.26.88,1.58,1.32,3.08,2.75,4.48,4.26,2.68,2.89,4.84,6.24,7.02,10.98,1.18,2.58-.91-3.11.59,1.53.32,1,.68,1.98.98,2.99.6,2,1.1,4.03,1.51,6.08-.08-.39.71,4.62.47,2.63s.19,2.57.18,2.42c.14,2.24.15,4.48.03,6.72-.05.9-.14,1.8-.21,2.7.22-2.84.1-.59-.03.05-.4,2-.83,3.98-1.44,5.93-.33,1.08-.69,2.15-1.11,3.2.27-.67,1.24-2.25-.14.12-.45.78-.84,1.6-1.3,2.37-.12.21-2.58,3.8-.74,1.43-1.13,1.47-2.49,2.7-3.77,4.02-2.92,3.01,1.2-.67-.85.74-1.01.69-2.04,1.34-3.12,1.93-3.14,1.73-6.8,2.83-11.76,3.49,2.16-.29-1.32.06-1.8.09-1.12.08-2.24.13-3.37.16-2.56.07-5.12.03-7.68-.09-5.44-.25-10.85-.85-16.24-1.53-.24-.03-3.66-.49-2.19-.28,1.82.26-3.62-.61-3-.49-2.16-.4-4.38-.83-6.43-1.63,1.59.62-.5-.27-.7-.39.08.05-3.42-2.51-1.85-1.17s-1.43-1.64-1.35-1.56c1.39,1.54.4.42-.28-.65-.42-.65-1.62-3.27-.47-.49-.33-.8-.6-1.64-.85-2.46-.51-1.67-.89-3.4-1.15-5.12.48,3.14.07.21.07-.61,0-1.09-.08-2.19-.06-3.28.01-.87.05-1.73.1-2.6.03-.47.41-4.43.14-2.27.69-5.53,2.18-11.05,4-16.31,1.7-4.89,3.38-8.36,6.39-13.46,1.48-2.5,3.07-4.92,4.75-7.29,3.2-4.51-.94.91.99-1.21.85-.93,1.76-1.8,2.62-2.72,2.98-3.21-.91.41,1.12-1.04.53-.38,3.75-2.18,2.82-1.79-1.47.61,1.36-.37,1.7-.44,1.07-.25.95-.22-.36.06,1.81.05,1.97.06.49.03,7.64,1.7,16.59-2.31,18.45-10.48,1.73-7.6-2.28-16.63-10.48-18.45h0Z"/>
    <path class="st3" d="M662.71,251.82c1.13,33.38.49,66.78-1.91,100.09h30c.45-13.05,1.93-24.47,4.96-37.19,1.37-5.74,2.94-11.44,4.83-17.03.38-1.13.78-2.25,1.2-3.37.31-.83,1.26-3.01.4-1.1,1.12-2.47,2.35-4.89,3.77-7.2.66-1.08,1.35-2.14,2.08-3.18-1.1,1.56.65-.81,1.06-1.28,1.84-2.1,3.84-4.02,5.97-5.82,1.59-1.35-1.44.83.97-.68,1.24-.78,2.43-1.58,3.7-2.32,1.09-.63,2.21-1.22,3.34-1.79.3-.15,3.21-1.54,1.42-.76,11.24-4.92,20.92-5.96,32.83-4.74,7.83.8,15.34-7.47,15-15-.39-8.81-6.61-14.14-15-15-28.6-2.93-59.14,8.88-75.62,32.87-7.4,10.76-11.31,24-14.42,36.56-3.81,15.36-5.94,31.22-6.48,47.03-.27,7.85,7.09,15.35,15,15,8.61-.39,14.39-6.6,15-15,2.4-33.31,3.04-66.71,1.91-100.09-.26-7.83-6.71-15.37-15-15s-15.28,6.6-15,15h0Z"/>
    <path class="st2" d="M400.93,243.67c-15.65-3.82-31.84.66-44,11.03-11.06,9.43-17.83,23.78-22.79,37.18-5.45,14.71-6.51,31.01.48,45.4,5.06,10.41,14.49,18.3,24.95,22.92,23.05,10.19,50.84,9.14,71-6.82,10.55-8.36,19.39-20.57,25.14-32.72,6.86-14.48,7.47-29.4.62-43.95-14.22-30.19-51.3-40.93-82.04-41.7-7.85-.2-15.36,7.04-15,15s6.59,14.79,15,15c19.34.49,38.07,5.47,51.13,18.78,3.25,3.31-.58-1.03.96,1.11.72,1,1.4,2.04,2.03,3.1.49.83,2.44,5.31,1.58,2.91.39,1.11.74,2.22,1.03,3.36.19.76.62,3.75.31.79.09.91.14,1.84.14,2.76,0,.59-.43,4.18,0,1.79-.93,5.23-2.17,7.34-4.93,12-1.45,2.45-3.03,4.83-4.65,7.18s-2.35,3.38-3.3,4.47c-2.87,3.28-6.49,7.05-8.95,8.49-1.01.59-2.07,1.18-3.06,1.8-.67.42-3.29,1.54-.38.33-1.95.81-3.99,1.44-6.04,1.95-1.04.26-2.1.46-3.15.68-.85.18-3.69.36-.52.11-1.75.14-3.49.27-5.24.29-2.21.03-4.39-.14-6.59-.28-.69-.04-2.83-.54.07.03-1.29-.26-2.58-.45-3.86-.74-2.1-.48-4.18-1.06-6.22-1.77-.8-.28-1.6-.58-2.39-.89,2.76,1.09.69.3.14,0-1.8-.98-3.6-1.88-5.31-3.01-.66-.44-1.31-.89-1.95-1.37,2.87,2.16-.09-.26-.51-.66-.54-.53-1.03-1.11-1.58-1.64-2.22-2.14.31,1.53-.07-.04-.19-.79-1.39-2.24-1.75-2.89-1.7-3.15-.67-1.56-.47-1.02-.46-1.27-.79-2.6-1.05-3.93-.52-2.62-.19,3.05-.14-1.62.01-1.09-.04-2.16,0-3.25,0-.04.59-4.59.22-2.56,2-10.95,6.22-20.59,12.92-29.9-1.14,1.58.9-1.09,1.19-1.41,1.11-1.24,2.28-2.43,3.56-3.5,2.04-1.71-2.31,1.09,1.39-.95,1.34-.74,2.62-1.58,4.05-2.16-1.91.78.59-.11.81-.16,1.54-.36,3.05-.91,4.63-1.1-2.37.28.98.1,1.54.1.79,0,1.58.03,2.37.11-1.39-.16-1.17-.05.66.31,7.61,1.86,16.62-2.42,18.45-10.48s-2.32-16.46-10.48-18.45h0Z"/>
  </g>
</svg>