<?xml version="1.0" encoding="UTF-8"?>
<svg id="_レイヤー_1" data-name="レイヤー_1" xmlns="http://www.w3.org/2000/svg" version="1.1" viewBox="0 0 1000 500">
  <!-- Generator: Adobe Illustrator 30.1.0, SVG Export Plug-In . SVG Version: 2.1.1 Build 136)  -->
  <defs>
    <style>
      .st0 {
        fill: #0050a0;
      }
    </style>
  </defs>
  <path class="st0" d="M291.32,332.22c0,6.26-4.78,9.53-10.61,7.26l-170.09-66.09c-5.84-2.27-10.61-9.25-10.61-15.51v-24.23c0-6.26,4.78-13.24,10.62-15.51l170.09-66.09c5.84-2.27,10.62,1,10.62,7.26v23.69c0,6.26-4.78,13.22-10.63,15.47l-15.08,5.78c-5.85,2.24-10.63,9.2-10.63,15.47v52.11c0,6.26,4.78,13.22,10.63,15.47l15.08,5.78c5.85,2.24,10.63,9.2,10.63,15.47v23.69ZM216.16,245.85h0c0-11.15-11.14-18.87-21.58-14.95h0c-13.79,5.17-13.83,24.66-.06,29.89h0c10.45,3.97,21.64-3.75,21.64-14.93Z"/>
  <path class="st0" d="M481.49,345.21c-4.47,4.38-11.71,4.3-16.08-.19l-3.8-3.9c-4.37-4.49-12.61-6.04-18.31-3.44,0,0-4.44,2.02-12.73,4.03-8.3,2-16.99,3.01-26.11,3.01-19.67,0-37.08-4.24-52.2-12.71-15.12-8.47-26.96-20.13-35.53-34.98-8.57-14.85-12.85-31.84-12.85-50.97,0-14.57,2.46-27.88,7.38-39.9,4.92-12.03,11.84-22.5,20.77-31.43,8.92-8.93,19.45-15.81,31.57-20.64,12.12-4.83,25.56-7.24,40.31-7.24,19.5,0,36.76,4.23,51.79,12.71,15.04,8.47,26.83,20.18,35.4,35.12,8.56,14.94,12.85,32.07,12.85,51.38,0,12.21-1.78,23.64-5.33,34.3s-8.97,19.01-8.97,19.01c-3.41,5.25-2.6,13.21,1.79,17.67l1.24,1.26c4.39,4.46,4.33,11.7-.14,16.09l-11.06,10.84ZM404.48,304.25c3.28,0,6.29-.32,9.02-.96l2.73-.64c3.01-1.08,1.87-5.61-2.53-10.07l-3.96-4.01c-4.4-4.46-4.27-11.62.29-15.91l11.57-10.9c4.56-4.29,11.87-4.14,16.24.35l5.69,5.83c4.37,4.48,9.84,4.2,12.14-.64l1.28-5.01c1.27-5.01,1.91-10.43,1.91-16.26,0-11.66-2.32-21.91-6.97-30.75-4.64-8.84-11.12-15.72-19.4-20.64-8.3-4.92-17.82-7.38-28.57-7.38s-20.27,2.46-28.56,7.38c-8.3,4.92-14.76,11.8-19.41,20.64-4.65,8.84-6.97,19.09-6.97,30.75s2.36,21.37,7.11,30.2c4.73,8.84,11.29,15.72,19.68,20.64,8.37,4.92,17.94,7.38,28.69,7.38Z"/>
  <path class="st0" d="M607.83,344.98c-16.4,0-30.57-3.1-42.5-9.29-11.94-6.19-21.09-14.99-27.47-26.38-6.38-11.39-8.33-29.27-8.33-29.27-.68-6.23-1.24-16.45-1.24-22.71v-95.84c0-6.26,5.12-11.39,11.39-11.39h21.22c6.26,0,11.39,5.12,11.39,11.39v95.84c0,6.26.55,16.48,1.22,22.71,0,0,.24,2.25,3.16,7.54,2.91,5.29,7.06,9.39,12.43,12.3,5.37,2.92,11.79,4.37,19.27,4.37s13.67-1.46,19.13-4.37c5.47-2.91,9.65-7.01,12.57-12.3,2.91-5.28,3.16-7.54,3.16-7.54.67-6.23,1.22-16.45,1.22-22.71v-95.84c0-6.26,5.12-11.39,11.39-11.39h21.23c6.26,0,11.39,5.12,11.39,11.39v95.84c0,6.26-.56,16.48-1.25,22.71,0,0-1.98,17.88-8.45,29.27-6.47,11.39-15.76,20.18-27.88,26.38-12.12,6.19-26.47,9.29-43.04,9.29Z"/>
  <path class="st0" d="M900,332.22c0,6.26-4.78,9.53-10.61,7.26l-170.09-66.1c-5.84-2.27-10.61-9.25-10.61-15.51v-24.23c0-6.26,4.78-13.24,10.62-15.51l170.09-66.09c5.84-2.27,10.62,1,10.62,7.26v23.69c0,6.26-4.78,13.22-10.63,15.47l-15.08,5.78c-5.85,2.24-10.63,9.2-10.63,15.47v52.11c0,6.26,4.78,13.22,10.63,15.47l15.08,5.78c5.85,2.24,10.63,9.2,10.63,15.47v23.69ZM824.84,245.85h0c0-11.15-11.14-18.87-21.58-14.95h0c-13.79,5.17-13.83,24.66-.06,29.89h0c10.45,3.97,21.64-3.75,21.64-14.93Z"/>
</svg>