<?xml version="1.0" encoding="UTF-8"?>
<svg id="_レイヤー_1" data-name="レイヤー_1" xmlns="http://www.w3.org/2000/svg" xmlns:xlink="http://www.w3.org/1999/xlink" version="1.1" viewBox="0 0 1000 500">
  <!-- Generator: Adobe Illustrator 30.1.0, SVG Export Plug-In . SVG Version: 2.1.1 Build 136)  -->
  <defs>
    <style>
      .st0 {
        fill: none;
      }

      .st1 {
        fill: url(#_名称未設定グラデーション_505);
      }
    </style>
    <linearGradient id="_名称未設定グラデーション_505" data-name="名称未設定グラデーション 505" x1="92.72" y1="342.94" x2="903.27" y2="178.03" gradientUnits="userSpaceOnUse">
      <stop offset="0" stop-color="#009fe8"/>
      <stop offset=".25" stop-color="#1d2087"/>
      <stop offset=".5" stop-color="#e3007f"/>
      <stop offset=".75" stop-color="#e50012"/>
      <stop offset="1" stop-color="#fff000"/>
    </linearGradient>
  </defs>
  <rect class="st0" x="450" y="200" width="100" height="100"/>
  <path class="st1" d="M135.36,383.27c24.39-28.32,52.37-53.18,81.89-76.03l-10.12,7.82c26.39-20.34,53.92-39.14,81.55-57.74,26.98-18.16,54.47-35.65,84.51-48.37l-11.94,5.04c16.24-6.76,33.06-12.04,50.52-14.5l-13.29,1.79c11.45-1.49,22.92-1.68,34.38-.16l-13.29-1.79c8.86,1.3,17.44,3.61,25.75,6.99l-11.94-5.04c8.87,3.76,17.11,8.6,24.74,14.48l-10.12-7.82c9.54,7.53,17.79,16.39,25.2,25.98l-7.82-10.12c19.02,24.96,32.26,53.62,49.14,79.97,10.26,16.03,21.77,31.82,35.35,45.21,8.46,8.34,18.02,15.78,27.85,22.42,10.4,7.02,21.8,11.8,33.38,16.54,19.46,7.96,41.14,11.26,62.04,11.98s42.78-2.22,63.15-7.51c43.26-11.22,81.12-35.47,114.25-64.88,35.45-31.47,63.99-69.92,92.67-107.39,7.32-9.57,8.07-27.53,5.04-38.53-3.19-11.6-12.16-24.17-22.98-29.88-11.6-6.13-25.66-9.2-38.53-5.04l-11.94,5.04c-7.51,4.45-13.49,10.42-17.94,17.94-3.75,4.9-7.5,9.79-11.26,14.67l7.82-10.12c-26.94,34.83-55.16,69.26-90.18,96.35l10.12-7.82c-15.21,11.63-31.48,21.77-49.11,29.3l11.94-5.04c-15.38,6.42-31.45,10.91-47.96,13.22l13.29-1.79c-14.34,1.88-28.78,2.09-43.14.27l13.29,1.79c-12.17-1.67-24.01-4.78-35.34-9.55l11.94,5.04c-9.57-4.16-18.51-9.41-26.76-15.79l10.12,7.82c-9.78-7.75-18.27-16.82-25.9-26.66l7.82,10.12c-20.9-27.32-34.83-59.04-54.1-87.43-11.32-16.67-23.95-33.28-39.72-46.02-20.61-16.65-43.96-30.17-70.49-34.65-13.66-2.31-27.44-4-41.29-3.06-13.97.95-28.13,3.02-41.73,6.49-24.25,6.2-47.7,16.66-69.78,28.32-19.15,10.11-37.35,21.82-55.3,33.9s-36.83,24.84-54.89,37.77c-43.7,31.27-86.38,64.92-121.57,105.78-8.77,10.18-14.64,21.54-14.64,35.36,0,12.26,5.45,26.91,14.64,35.36,9.53,8.75,22.04,15.24,35.36,14.64s26.76-4.67,35.36-14.64h0Z"/>
</svg>