<?xml version="1.0" encoding="UTF-8"?>
<svg id="_レイヤー_1" data-name="レイヤー_1" xmlns="http://www.w3.org/2000/svg" version="1.1" viewBox="0 0 1000 500">
  <!-- Generator: Adobe Illustrator 30.1.0, SVG Export Plug-In . SVG Version: 2.1.1 Build 136)  -->
  <defs>
    <style>
      .st0 {
        fill: #222;
      }

      .st1 {
        fill: #f2f3f4;
      }
    </style>
  </defs>
  <rect class="st0" x="573.84" y="127.69" width="326.16" height="244.62"/>
  <g>
    <g>
      <g>
        <path class="st0" d="M146.74,305.61v-130.89h-46.74v-26.65h125.19v26.65h-46.64v130.89h-31.81Z"/>
        <path class="st0" d="M214.87,191.49h32.13l27.29,81.02,26.65-81.02h31.27l-40.3,109.82-7.2,19.88c-2.65,6.66-5.18,11.75-7.58,15.26-2.4,3.51-5.16,6.36-8.27,8.54-3.12,2.18-6.95,3.89-11.5,5.1-4.55,1.22-9.69,1.83-15.42,1.83s-11.5-.61-17.09-1.83l-2.69-23.64c4.73.93,8.99,1.4,12.79,1.4,7.02,0,12.21-2.06,15.58-6.18,3.37-4.12,5.95-9.37,7.74-15.74l-43.41-114.44Z"/>
      </g>
      <path class="st0" d="M340.37,191.49h28.15v16.76c3.65-5.73,8.6-10.39,14.83-13.97,6.23-3.58,13.14-5.37,20.74-5.37,13.25,0,24.5,5.19,33.74,15.58,9.24,10.39,13.86,24.86,13.86,43.41s-4.66,33.87-13.97,44.43c-9.31,10.57-20.6,15.85-33.85,15.85-6.31,0-12.02-1.25-17.14-3.76-5.12-2.51-10.51-6.8-16.17-12.9v57.49h-30.2v-157.54ZM370.25,246.62c0,12.82,2.54,22.3,7.63,28.42,5.09,6.13,11.28,9.19,18.59,9.19s12.86-2.81,17.52-8.44c4.66-5.62,6.98-14.85,6.98-27.67,0-11.96-2.4-20.85-7.2-26.65-4.8-5.8-10.75-8.7-17.84-8.7s-13.5,2.85-18.38,8.54c-4.87,5.7-7.31,14.13-7.31,25.31Z"/>
      <path class="st0" d="M534.75,269.29l30.09,5.05c-3.87,11.03-9.98,19.43-18.32,25.2-8.35,5.77-18.79,8.65-31.32,8.65-19.85,0-34.53-6.48-44.06-19.45-7.52-10.39-11.28-23.5-11.28-39.33,0-18.91,4.94-33.72,14.83-44.43,9.89-10.71,22.39-16.07,37.5-16.07,16.98,0,30.37,5.61,40.19,16.82,9.81,11.21,14.51,28.39,14.08,51.53h-75.65c.21,8.96,2.65,15.92,7.31,20.9,4.66,4.98,10.46,7.47,17.41,7.47,4.73,0,8.7-1.29,11.93-3.87,3.22-2.58,5.66-6.73,7.31-12.47ZM536.47,238.77c-.21-8.74-2.47-15.38-6.77-19.93-4.3-4.55-9.53-6.82-15.69-6.82-6.59,0-12.04,2.4-16.33,7.2-4.3,4.8-6.41,11.32-6.34,19.56h45.13Z"/>
    </g>
    <g>
      <path class="st1" d="M582.79,305.61v-30.2h30.2v30.2h-30.2Z"/>
      <path class="st1" d="M685.94,191.49v24.07h-20.63v45.99c0,9.31.2,14.74.59,16.28.39,1.54,1.29,2.81,2.69,3.81,1.4,1,3.1,1.5,5.1,1.5,2.79,0,6.84-.97,12.14-2.9l2.58,23.43c-7.02,3.01-14.97,4.51-23.86,4.51-5.45,0-10.35-.91-14.72-2.74-4.37-1.83-7.58-4.19-9.62-7.09s-3.46-6.82-4.24-11.77c-.64-3.51-.97-10.6-.97-21.28v-49.75h-13.86v-24.07h13.86v-22.67l30.3-17.62v40.3h20.63Z"/>
      <path class="st1" d="M696.56,305.61l41.16-58.78-39.44-55.34h36.86l20.2,31.38,21.28-31.38h35.46l-38.69,54.05,42.23,60.07h-37.07l-23.21-35.35-23.43,35.35h-35.35Z"/>
      <path class="st1" d="M888.58,191.49v24.07h-20.63v45.99c0,9.31.2,14.74.59,16.28.39,1.54,1.29,2.81,2.69,3.81,1.4,1,3.1,1.5,5.1,1.5,2.79,0,6.84-.97,12.14-2.9l2.58,23.43c-7.02,3.01-14.97,4.51-23.86,4.51-5.45,0-10.35-.91-14.72-2.74-4.37-1.83-7.58-4.19-9.62-7.09s-3.46-6.82-4.24-11.77c-.64-3.51-.97-10.6-.97-21.28v-49.75h-13.86v-24.07h13.86v-22.67l30.3-17.62v40.3h20.63Z"/>
    </g>
  </g>
</svg>