<?xml version="1.0" encoding="UTF-8"?>
<svg id="_レイヤー_1" data-name="レイヤー_1" xmlns="http://www.w3.org/2000/svg" version="1.1" viewBox="0 0 1000 500">
  <!-- Generator: Adobe Illustrator 30.1.0, SVG Export Plug-In . SVG Version: 2.1.1 Build 136)  -->
  <defs>
    <style>
      .st0 {
        fill: #0050a0;
      }
    </style>
  </defs>
  <g>
    <path class="st0" d="M291.32,332.22c0,6.26-4.78,9.53-10.61,7.26l-170.09-66.09c-5.84-2.27-10.61-9.25-10.61-15.51v-24.23c0-6.26,4.78-13.24,10.62-15.51l170.09-66.09c5.84-2.27,10.62,1,10.62,7.26v23.69c0,6.26-4.78,13.22-10.63,15.47l-15.08,5.78c-5.85,2.24-10.63,9.2-10.63,15.47v52.11c0,6.26,4.78,13.22,10.63,15.47l15.08,5.78c5.85,2.24,10.63,9.2,10.63,15.47v23.69ZM216.16,245.85h0c0-11.15-11.14-18.87-21.58-14.95h0c-13.79,5.17-13.83,24.66-.06,29.89h0c10.45,3.97,21.64-3.75,21.64-14.93Z"/>
    <path class="st0" d="M481.49,345.21c-4.47,4.38-11.71,4.3-16.08-.19l-3.8-3.9c-4.37-4.49-12.61-6.04-18.31-3.44,0,0-4.44,2.02-12.73,4.03-8.3,2-16.99,3.01-26.11,3.01-19.67,0-37.08-4.24-52.2-12.71-15.12-8.47-26.96-20.13-35.53-34.98-8.57-14.85-12.85-31.84-12.85-50.97,0-14.57,2.46-27.88,7.38-39.9,4.92-12.03,11.84-22.5,20.77-31.43,8.92-8.93,19.45-15.81,31.57-20.64,12.12-4.83,25.56-7.24,40.31-7.24,19.5,0,36.76,4.23,51.79,12.71,15.04,8.47,26.83,20.18,35.4,35.12,8.56,14.94,12.85,32.07,12.85,51.38,0,12.21-1.78,23.64-5.33,34.3s-8.97,19.01-8.97,19.01c-3.41,5.25-2.6,13.21,1.79,17.67l1.24,1.26c4.39,4.46,4.33,11.7-.14,16.09l-11.06,10.84ZM404.48,304.25c3.28,0,6.29-.32,9.02-.96l2.73-.64c3.01-1.08,1.87-5.61-2.53-10.07l-3.96-4.01c-4.4-4.46-4.27-11.62.29-15.91l11.57-10.9c4.56-4.29,11.87-4.14,16.24.35l5.69,5.83c4.37,4.48,9.84,4.2,12.14-.64l1.28-5.01c1.27-5.01,1.91-10.43,1.91-16.26,0-11.66-2.32-21.91-6.97-30.75-4.64-8.84-11.12-15.72-19.4-20.64-8.3-4.92-17.82-7.38-28.57-7.38s-20.27,2.46-28.56,7.38c-8.3,4.92-14.76,11.8-19.41,20.64-4.65,8.84-6.97,19.09-6.97,30.75s2.36,21.37,7.11,30.2c4.73,8.84,11.29,15.72,19.68,20.64,8.37,4.92,17.94,7.38,28.69,7.38Z"/>
    <path class="st0" d="M607.83,344.98c-16.4,0-30.57-3.1-42.5-9.29-11.94-6.19-21.09-14.99-27.47-26.38-6.38-11.39-8.33-29.27-8.33-29.27-.68-6.23-1.24-16.45-1.24-22.71v-95.84c0-6.26,5.12-11.39,11.39-11.39h21.22c6.26,0,11.39,5.12,11.39,11.39v95.84c0,6.26.55,16.48,1.22,22.71,0,0,.24,2.25,3.16,7.54,2.91,5.29,7.06,9.39,12.43,12.3,5.37,2.92,11.79,4.37,19.27,4.37s13.67-1.46,19.13-4.37c5.47-2.91,9.65-7.01,12.57-12.3,2.91-5.28,3.16-7.54,3.16-7.54.67-6.23,1.22-16.45,1.22-22.71v-95.84c0-6.26,5.12-11.39,11.39-11.39h21.23c6.26,0,11.39,5.12,11.39,11.39v95.84c0,6.26-.56,16.48-1.25,22.71,0,0-1.98,17.88-8.45,29.27-6.47,11.39-15.76,20.18-27.88,26.38-12.12,6.19-26.47,9.29-43.04,9.29Z"/>
    <path class="st0" d="M900,332.22c0,6.26-4.78,9.53-10.61,7.26l-170.09-66.1c-5.84-2.27-10.61-9.25-10.61-15.51v-24.23c0-6.26,4.78-13.24,10.62-15.51l170.09-66.09c5.84-2.27,10.62,1,10.62,7.26v23.69c0,6.26-4.78,13.22-10.63,15.47l-15.08,5.78c-5.85,2.24-10.63,9.2-10.63,15.47v52.11c0,6.26,4.78,13.22,10.63,15.47l15.08,5.78c5.85,2.24,10.63,9.2,10.63,15.47v23.69ZM824.84,245.85h0c0-11.15-11.14-18.87-21.58-14.95h0c-13.79,5.17-13.83,24.66-.06,29.89h0c10.45,3.97,21.64-3.75,21.64-14.93Z"/>
  </g>
  <g>
    <path class="st0" d="M305.76,136.04c-1.49,0-2.71-1.22-2.71-2.71v-40.15c0-1.49,1.22-2.71,2.71-2.71h5.05c1.49,0,2.71,1.22,2.71,2.71v12.13c0,1.49,1.22,2.71,2.71,2.71h13.5c1.49,0,2.71-1.22,2.71-2.71v-12.07c0-1.49,1.22-2.71,2.71-2.71h5.05c1.49,0,2.71,1.22,2.71,2.71v40.08c0,1.49-1.22,2.71-2.71,2.71h-5.05c-1.49,0-2.71-1.22-2.71-2.71v-12.98c0-1.49-1.22-2.71-2.71-2.71h-13.5c-1.49,0-2.71,1.22-2.71,2.71v12.98c0,1.49-1.22,2.71-2.71,2.71h-5.05Z"/>
    <path class="st0" d="M357.69,136.04c-1.49,0-2.71-1.22-2.71-2.71v-40.08c0-1.49,1.22-2.71,2.71-2.71h5.05c1.49,0,2.71,1.22,2.71,2.71v40.08c0,1.49-1.22,2.71-2.71,2.71h-5.05Z"/>
    <path class="st0" d="M380.25,136.04c-1.49,0-2.71-1.22-2.71-2.71v-40.08c0-1.49,1.22-2.71,2.71-2.71h12.46c1.49,0,3.92.12,5.4.28,0,0,3.52.36,6.08,1.64s4.56,3.05,6.01,5.33c1.45,2.27,2.18,4.88,2.18,7.83s-.77,5.65-2.31,7.96c-1.54,2.32-3.87,3.83-3.87,3.83-1.25.81-1.65,2.52-.88,3.79l7.49,12.51c.76,1.28.17,2.32-1.32,2.32h-6.54c-1.49,0-3.31-1.06-4.05-2.35l-6.03-10.57c-.74-1.29-1.58-2.35-1.87-2.35h-3.04c-1.07,0-1.95,1.22-1.95,2.71v9.86c0,1.49-1.22,2.71-2.71,2.71h-5.05ZM388.01,108.44c0,1.49,1.22,2.71,2.71,2.71h1.67c1.49,0,3.74-.11,5-.24l.95-.48c.95-.48,1.7-1.14,2.24-1.98.54-.84.81-1.79.81-2.83,0-1.6-.6-2.92-1.79-3.96-1.19-1.04-2.03-1.16-2.03-1.16-1.47-.22-3.9-.4-5.39-.4h-1.47c-1.49,0-2.71,1.22-2.71,2.71v5.63Z"/>
    <path class="st0" d="M444.75,136.82c-4.68,0-8.82-1.01-12.41-3.02-3.6-2.02-6.42-4.79-8.45-8.32-2.04-3.53-3.05-7.57-3.05-12.12s1.02-8.65,3.05-12.19c2.04-3.53,4.84-6.31,8.42-8.32s7.68-3.02,12.32-3.02,8.74,1.01,12.32,3.02c3.57,2.02,6.38,4.79,8.42,8.32,2.04,3.53,3.05,7.6,3.05,12.19s-1.01,8.59-3.02,12.12c-2.02,3.53-4.8,6.31-8.35,8.32s-7.65,3.02-12.28,3.02ZM444.75,127.2c2.55,0,4.81-.59,6.76-1.76,1.95-1.17,3.46-2.8,4.55-4.91,1.08-2.1,1.62-4.5,1.62-7.18s-.57-5.14-1.69-7.25-2.66-3.75-4.61-4.94c-1.95-1.19-4.21-1.79-6.76-1.79s-4.81.6-6.76,1.79c-1.95,1.19-3.49,2.84-4.61,4.94s-1.69,4.5-1.69,7.18.57,5.15,1.69,7.25,2.68,3.74,4.68,4.91,4.27,1.76,6.83,1.76Z"/>
    <path class="st0" d="M493.63,136.82c-2.21,0-4.32-.29-6.34-.88s-3.83-1.39-5.46-2.4c-1.62-1.02-2.96-2.17-3.99-3.45-1.04-1.28-1.13-1.55-1.13-1.55-.45-1.42.35-2.91,1.78-3.32l5.12-1.45c1.43-.41,3.2.32,3.92,1.61l1.19.93c1.19.93,2.7,1.42,4.52,1.46,1.78.04,3.26-.37,4.45-1.24,1.19-.87,1.79-1.99,1.79-3.38,0-1.08-.42-2.04-1.27-2.86s-1.08-.91-1.08-.91c-1.39-.54-3.71-1.27-5.15-1.64l-1.18-.3c-1.44-.36-3.78-1.06-5.19-1.54,0,0-1.66-.57-3.33-1.78-1.67-1.21-2.97-2.7-3.9-4.45-.93-1.75-1.4-3.76-1.4-6.01,0-4.38,1.45-7.79,4.35-10.24,2.9-2.45,7-3.67,12.29-3.67,2.9,0,5.44.4,7.6,1.2,2.17.8,4.02,1.98,5.56,3.54s2.47,3.42,2.47,3.42c.66,1.33.04,2.77-1.39,3.2l-5.08,1.51c-1.43.42-3.09-.23-3.69-1.46l-1.15-.95c-1.15-.95-2.63-1.43-4.45-1.43s-3.24.41-4.26,1.24c-1.02.82-1.53,2.02-1.53,3.58,0,1.08.41,1.98,1.24,2.7l.82.72c1.41.48,3.74,1.18,5.19,1.54l1.18.3c1.44.36,3.76,1.11,5.14,1.67,0,0,4.04,1.61,6.1,4.1,2.06,2.49,3.08,5.32,3.08,8.48,0,2.86-.66,5.31-1.98,7.34-1.32,2.04-3.24,3.61-5.76,4.71s-5.55,1.66-9.1,1.66Z"/>
    <path class="st0" d="M523.18,136.04c-1.49,0-2.71-1.22-2.71-2.71v-40.15c0-1.49,1.22-2.71,2.71-2.71h5.05c1.49,0,2.71,1.22,2.71,2.71v12.13c0,1.49,1.22,2.71,2.71,2.71h13.5c1.49,0,2.71-1.22,2.71-2.71v-12.07c0-1.49,1.22-2.71,2.71-2.71h5.05c1.49,0,2.71,1.22,2.71,2.71v40.08c0,1.49-1.22,2.71-2.71,2.71h-5.05c-1.49,0-2.71-1.22-2.71-2.71v-12.98c0-1.49-1.22-2.71-2.71-2.71h-13.5c-1.49,0-2.71,1.22-2.71,2.71v12.98c0,1.49-1.22,2.71-2.71,2.71h-5.05Z"/>
    <path class="st0" d="M575.12,136.04c-1.49,0-2.71-1.22-2.71-2.71v-40.08c0-1.49,1.22-2.71,2.71-2.71h5.05c1.49,0,2.71,1.22,2.71,2.71v40.08c0,1.49-1.22,2.71-2.71,2.71h-5.05Z"/>
    <path class="st0" d="M597.68,136.04c-1.49,0-2.71-1.22-2.71-2.71v-40.08c0-1.49,1.22-2.71,2.71-2.71h6.09c1.49,0,3.39,1.01,4.22,2.25l9.06,13.45c.83,1.24,2.2,1.24,3.03,0l9.12-13.46c.84-1.23,2.74-2.24,4.23-2.24h6.09c1.49,0,2.71,1.22,2.71,2.71v40.08c0,1.49-1.22,2.71-2.71,2.71h-5.05c-1.49,0-2.71-1.22-2.71-2.71v-23.83c0-1.49-.69-1.7-1.53-.47l-10.08,14.76c-.84,1.23-2.22,1.23-3.06,0l-10.13-14.77c-.84-1.23-1.53-1.01-1.53.47v23.83c0,1.49-1.22,2.71-2.71,2.71h-5.05Z"/>
    <path class="st0" d="M653.11,136.04c-1.49,0-2.27-1.14-1.73-2.52l15.72-40.45c.54-1.39,2.2-2.52,3.69-2.52h5.76c1.49,0,3.15,1.14,3.69,2.52l15.72,40.45c.54,1.39-.24,2.52-1.73,2.52h-5.63c-1.49,0-3.14-1.14-3.68-2.53l-1.38-3.59c-.53-1.39-2.19-2.53-3.68-2.53h-12.39c-1.49,0-3.14,1.14-3.68,2.53l-1.38,3.59c-.53,1.39-2.19,2.53-3.68,2.53h-5.63ZM669.11,115.64c-.53,1.39.26,2.53,1.75,2.53h5.57c1.49,0,2.28-1.14,1.76-2.54l-3.56-9.49c-.52-1.39-1.38-1.4-1.91,0l-3.6,9.5Z"/>
  </g>
  <g>
    <path class="st0" d="M412.85,408.68c-1.49,0-2.71-1.22-2.71-2.71v-40.08c0-1.49,1.22-2.71,2.71-2.71h12.46c1.49,0,3.92.13,5.4.29,0,0,3.52.37,6.08,1.69,2.56,1.32,4.56,3.15,6.01,5.49,1.45,2.34,2.18,5.03,2.18,8.06s-.71,5.72-2.11,8.06-3.37,4.18-5.88,5.53-5.95,1.72-5.95,1.72c-1.48.16-3.91.29-5.4.29h-2.32c-1.49,0-2.71,1.22-2.71,2.71v8.95c0,1.49-1.22,2.71-2.71,2.71h-5.05ZM420.61,381.98c0,1.49,1.22,2.71,2.71,2.71h2.06c1.49,0,3.91-.2,5.38-.44,0,0,.69-.11,1.81-1.22s1.69-2.55,1.69-4.32-.6-3.22-1.79-4.32c-1.19-1.11-2.04-1.24-2.04-1.24-1.47-.23-3.89-.42-5.38-.42h-1.73c-1.49,0-2.71,1.22-2.71,2.71v6.54Z"/>
    <path class="st0" d="M452.11,408.68c-1.49,0-2.27-1.14-1.73-2.52l15.72-40.45c.54-1.39,2.2-2.52,3.69-2.52h5.76c1.49,0,3.15,1.14,3.69,2.52l15.72,40.45c.54,1.39-.24,2.52-1.73,2.52h-5.63c-1.49,0-3.14-1.14-3.68-2.53l-1.38-3.59c-.53-1.39-2.19-2.53-3.68-2.53h-12.39c-1.49,0-3.14,1.14-3.68,2.53l-1.38,3.59c-.53,1.39-2.19,2.53-3.68,2.53h-5.63ZM468.11,388.27c-.53,1.39.26,2.53,1.75,2.53h5.57c1.49,0,2.28-1.14,1.76-2.54l-3.56-9.49c-.52-1.39-1.38-1.4-1.91,0l-3.6,9.5Z"/>
    <path class="st0" d="M506.84,408.68c-1.49,0-2.71-1.22-2.71-2.71v-40.08c0-1.49,1.22-2.71,2.71-2.71h12.46c1.49,0,3.92.12,5.4.28,0,0,3.52.36,6.08,1.64s4.56,3.05,6.02,5.33c1.45,2.27,2.17,4.88,2.17,7.83s-.77,5.65-2.31,7.96c-1.53,2.32-3.86,3.83-3.86,3.83-1.25.81-1.65,2.52-.88,3.79l7.49,12.51c.76,1.28.17,2.32-1.32,2.32h-6.54c-1.49,0-3.31-1.06-4.05-2.35l-6.03-10.57c-.74-1.29-1.58-2.35-1.87-2.35h-3.04c-1.07,0-1.95,1.22-1.95,2.71v9.86c0,1.49-1.22,2.71-2.71,2.71h-5.05ZM514.59,381.07c0,1.49,1.22,2.71,2.71,2.71h1.67c1.49,0,3.74-.11,5-.24l.95-.48c.95-.48,1.7-1.14,2.24-1.98.54-.84.81-1.79.81-2.83,0-1.6-.6-2.92-1.79-3.96-1.19-1.04-2.03-1.16-2.03-1.16-1.47-.22-3.9-.4-5.39-.4h-1.47c-1.49,0-2.71,1.22-2.71,2.71v5.63Z"/>
    <path class="st0" d="M552.59,408.68c-1.49,0-2.71-1.22-2.71-2.71v-40.08c0-1.49,1.22-2.71,2.71-2.71h4.98c1.49,0,2.71,1.22,2.71,2.71v11.16c0,1.49.83,1.81,1.84.72l11.6-12.59c1.01-1.1,3.05-1.99,4.54-1.99h8.24c1.49,0,1.88.89.87,1.99l-15.36,16.57c-1.01,1.09-1.09,2.94-.16,4.11l16.34,20.71c.92,1.17.46,2.13-1.03,2.13h-7.52c-1.49,0-3.46-.96-4.37-2.14l-10.32-13.27c-.91-1.18-2.33-1.42-3.16-.54s-1.49,2.81-1.49,4.3v8.95c0,1.49-1.22,2.71-2.71,2.71h-4.98Z"/>
  </g>
</svg>