<?xml version="1.0" encoding="UTF-8"?>
<svg id="_レイヤー_1" data-name="レイヤー_1" xmlns="http://www.w3.org/2000/svg" version="1.1" viewBox="0 0 1000 800">
  <!-- Generator: Adobe Illustrator 30.1.0, SVG Export Plug-In . SVG Version: 2.1.1 Build 136)  -->
  <defs>
    <style>
      .st0 {
        fill: #7dccf3;
      }

      .st1 {
        fill: none;
        stroke: #7dccf3;
        stroke-miterlimit: 10;
        stroke-width: 13.33px;
      }
    </style>
  </defs>
  <g>
    <path class="st0" d="M180,552.52c16.59-1.71,26.92-4.61,30.96-8.72,4.05-4.1,6.07-14.85,6.07-32.22v-174.56c0-14.3-2.26-23.65-6.79-28.04-4.53-4.4-14.61-7.12-30.24-8.17v-7.48h224.44l1.44,57.66h-11.73c-2.88-18.42-8.3-30.07-16.25-34.96-7.95-4.9-23.66-7.35-47.11-7.35h-57.77c-5.64,0-9.26.92-10.83,2.76-1.58,1.84-2.37,5.44-2.37,10.82v68.48h61.1c17.97,0,29.42-2.54,34.36-7.63,4.94-5.09,8.91-15.41,11.93-30.94h9.87v93.08h-9.87c-3.15-15.61-7.2-25.94-12.14-31-4.94-5.05-16.32-7.58-34.15-7.58h-61.1v109.62c0,14.74,2.37,24.18,7.1,28.28,4.73,4.12,15.05,6.76,30.96,7.94v7.48h-117.88v-7.48Z"/>
    <path class="st0" d="M308.64,468.47c10.47-10.09,23.93-15.14,40.4-15.14s29.95,4.77,40.71,14.31c10.76,9.54,16.13,22.24,16.13,38.09,0,14.61-5.21,27.29-15.64,38.08-10.43,10.79-23.91,16.18-40.46,16.18s-29.33-5.17-40.34-15.52c-11-10.35-16.51-23.33-16.51-38.96,0-14.61,5.23-26.95,15.7-37.04ZM328.46,465.66c-8.29,6.68-12.43,18.2-12.43,34.57,0,13.06,3.33,25.25,10.01,36.54,6.66,11.3,15.93,16.95,27.78,16.95,9.29,0,16.44-3.78,21.45-11.34,5.03-7.56,7.53-17.46,7.53-29.71s-3.19-24.66-9.58-35.89c-6.37-11.23-15.62-16.84-27.72-16.84-6.56,0-12.22,1.91-17.04,5.72Z"/>
    <path class="st0" d="M415.29,554.52c11.8-1.14,19.44-3.08,22.95-5.8,3.48-2.73,5.24-9.64,5.24-20.75v-131.48c0-10.49-1.72-17.33-5.17-20.56-3.45-3.22-11.12-5.23-23.02-6v-5.48h90.52v5.48c-11.8.58-19.71,2.36-23.72,5.34-4.04,2.98-6.04,9.38-6.04,19.19v142.01c0,3.27.59,5.85,1.81,7.73,1.2,1.88,3.83,3.05,7.92,3.53,2.4.29,4.92.48,7.6.58,2.66.1,7.66.14,14.96.14,28.54,0,47.83-2.16,57.86-6.49,10.04-4.33,19.77-15.39,29.16-33.19h8.16l-15.68,51.23h-172.56v-5.48Z"/>
    <path class="st0" d="M518.82,485.4c7.17-.73,11.85-1.96,14.02-3.7,2.18-1.73,3.27-6.14,3.27-13.19v-83.67c0-6.86-1.06-11.27-3.17-13.23-2.11-1.96-6.82-3.18-14.12-3.67v-3.49h53.01c17.86,0,32.98,2.82,45.33,8.45,22.28,10.1,33.42,28.16,33.42,54.19,0,9.37-2,18.28-6,26.73-4,8.45-10.04,15.58-18.1,21.4-5.12,3.67-10.44,6.46-15.94,8.36-10.05,3.55-22.41,5.33-37.07,5.33h-54.64v-3.49ZM558.43,480.44c1.57.98,4.82,1.47,9.75,1.47,15.37,0,28.01-2.91,37.94-8.74,15.24-8.94,22.86-24.23,22.86-45.86,0-19.3-6.27-33.83-18.82-43.58-10.76-8.33-25-12.49-42.74-12.49-4.42,0-7.41.46-8.98,1.38-1.57.92-2.35,2.94-2.35,6.06v95.68c0,3.08.78,5.1,2.35,6.08Z"/>
    <path class="st0" d="M612.94,560v-5.39c7.7-.84,13.47-3.66,17.33-8.43,3.85-4.77,10.45-17.84,19.81-39.2l62.41-142.53h5.96l74.63,164.66c4.97,10.9,8.96,17.65,11.93,20.23,2.97,2.58,7.96,4.35,14.98,5.28v5.39h-76.18v-5.39c8.76-.76,14.4-1.67,16.94-2.74,2.54-1.09,3.8-3.75,3.8-7.99,0-1.4-.49-3.89-1.46-7.47-.98-3.58-2.34-7.34-4.1-11.3l-11.99-27.94h-78.96c-7.79,19-12.42,30.6-13.93,34.79-1.51,4.19-2.28,7.5-2.28,9.94,0,4.9,2.05,8.29,6.14,10.16,2.54,1.13,7.3,1.99,14.3,2.54v5.39h-59.35ZM741.95,485.41l-34.33-79.98-34.5,79.98h68.83Z"/>
  </g>
  <path class="st1" d="M433.33,133.33H166.67c-36.82,0-66.67,29.85-66.67,66.67v400c0,36.82,29.85,66.67,66.67,66.67h666.67c36.82,0,66.67-29.85,66.67-66.67v-266.67c0-36.82-29.85-66.67-66.67-66.67h-266.67c-36.82,0-66.67-29.85-66.67-66.67h0c0-36.82-29.85-66.67-66.67-66.67Z"/>
</svg>