<?xml version="1.0" encoding="UTF-8"?>
<svg id="greeting" xmlns="http://www.w3.org/2000/svg" version="1.1" viewBox="0 0 1000 500">
  <!-- Generator: Adobe Illustrator 30.1.0, SVG Export Plug-In . SVG Version: 2.1.1 Build 136)  -->
  <defs>
    <style>
      .st0 {
        fill: none;
      }

      .st1 {
        fill: #f2f3f4;
      }
    </style>
  </defs>
  <rect class="st0" x="450" y="200" width="100" height="100"/>
  <g>
    <path class="st1" d="M176.05,315.69c-14.9,0-28.06-3.24-39.49-9.72-11.42-6.48-20.37-15.39-26.85-26.75-6.48-11.35-9.72-24.34-9.72-38.96s3.24-28.03,9.72-39.39c6.48-11.35,15.43-20.26,26.85-26.74,11.43-6.48,24.59-9.72,39.49-9.72,7.8,0,15.39,1.29,22.78,3.87,7.38,2.58,14.14,6.09,20.27,10.55,6.13,4.45,11.07,9.54,14.83,15.25l-14,9.61c-2.79-4.45-6.55-8.46-11.28-12.01s-9.92-6.3-15.57-8.25c-5.64-1.95-11.32-2.92-17.03-2.92-11.28,0-21.31,2.54-30.09,7.63-8.77,5.09-15.67,12.09-20.68,21-5.02,8.92-7.52,19.3-7.52,31.13s2.47,21.63,7.42,30.61c4.94,8.99,11.83,16.06,20.68,21.21,8.84,5.15,18.91,7.73,30.19,7.73,9.33,0,17.66-1.95,24.97-5.85,7.31-3.89,13.06-9.33,17.24-16.3,4.17-6.96,6.33-14.9,6.47-23.82h-35.94v-15.25h52.86v13.79c0,12.68-2.82,23.75-8.46,33.22-5.64,9.47-13.41,16.86-23.3,22.15-9.89,5.3-21.17,7.94-33.84,7.94Z"/>
    <path class="st1" d="M380.18,315.69c-10.17,0-19.15-2.34-26.95-7-7.8-4.67-13.89-11.11-18.28-19.33-4.39-8.21-6.58-17.68-6.58-28.41s2.19-20.19,6.58-28.41,10.45-14.66,18.18-19.33c7.73-4.66,16.61-7,26.63-7s18.18,2.41,25.28,7.21c7.11,4.8,12.61,11.53,16.51,20.17,3.89,8.64,5.85,18.8,5.85,30.5h-82.12c.7,11.42,4.32,20.34,10.86,26.74,6.55,6.41,14.83,9.62,24.87,9.62,7.38,0,13.61-1.74,18.69-5.23,5.08-3.48,9.02-8.08,11.81-13.79l14.42,7.32c-2.65,5.43-6.16,10.17-10.55,14.21-4.4,4.04-9.55,7.18-15.46,9.4-5.93,2.23-12.51,3.34-19.75,3.34ZM346.55,250.08h62.88c-.42-5.98-1.98-11.15-4.7-15.46-2.71-4.31-6.23-7.65-10.55-10.02s-9.19-3.55-14.62-3.55-10.38,1.15-15.25,3.44c-4.88,2.3-8.92,5.64-12.12,10.03s-5.08,9.58-5.64,15.57Z"/>
    <path class="st1" d="M494.25,315.69c-10.17,0-19.15-2.34-26.95-7-7.8-4.67-13.89-11.11-18.28-19.33-4.39-8.21-6.58-17.68-6.58-28.41s2.19-20.19,6.58-28.41,10.45-14.66,18.18-19.33c7.73-4.66,16.61-7,26.63-7s18.18,2.41,25.28,7.21c7.11,4.8,12.61,11.53,16.51,20.17,3.89,8.64,5.85,18.8,5.85,30.5h-82.12c.7,11.42,4.32,20.34,10.86,26.74,6.55,6.41,14.83,9.62,24.87,9.62,7.38,0,13.61-1.74,18.69-5.23,5.08-3.48,9.02-8.08,11.81-13.79l14.42,7.32c-2.65,5.43-6.16,10.17-10.55,14.21-4.4,4.04-9.55,7.18-15.46,9.4-5.93,2.23-12.51,3.34-19.75,3.34ZM460.62,250.08h62.88c-.42-5.98-1.98-11.15-4.7-15.46-2.71-4.31-6.23-7.65-10.55-10.02s-9.19-3.55-14.62-3.55-10.38,1.15-15.25,3.44c-4.88,2.3-8.92,5.64-12.12,10.03s-5.08,9.58-5.64,15.57Z"/>
    <path class="st1" d="M601.86,315.69c-10.18,0-18.04-2.64-23.61-7.94-5.58-5.29-8.37-12.74-8.37-22.36v-52.96h-18.18v-14.83h18.18v-32.59h16.72v32.59h31.34v14.83h-31.34v51.29c0,5.3,1.42,9.37,4.28,12.22,2.86,2.86,6.86,4.28,12.01,4.28,1.67,0,3.31-.24,4.91-.73,1.6-.48,3.72-1.7,6.38-3.66l6.47,13.59c-3.62,2.36-6.89,4-9.82,4.91s-5.92,1.36-8.98,1.36Z"/>
    <g>
      <path class="st1" d="M599.48,160.4c-1.97,1.97-4.44,2.96-7.38,2.96s-5.42-.99-7.39-2.96-3.07-4.55-3.02-7.46c.05-2.9,1.06-5.34,3.03-7.31s4.53-3.1,7.38-3.1,5.32,1.03,7.39,3.1,2.98,4.41,3.03,7.32c.05,2.9-.96,5.39-3.03,7.45ZM647.49,220.53l-36.93-36.93,11.82-11.82,36.93,36.93-11.82,11.82Z"/>
      <path class="st1" d="M642.59,313.18v-104.47h16.71v104.47h-16.71Z"/>
    </g>
    <g>
      <path class="st1" d="M263.81,313.18v-104.47h16.71v104.47h-16.71Z"/>
      <path class="st1" d="M263.81,208.71l36.93-36.93,11.82,11.82-36.93,36.93-11.82-11.82Z"/>
    </g>
    <path class="st1" d="M690.02,313.18v-104.47h15.68l.83,15.67c3.48-5.85,8.01-10.34,13.58-13.47s12.05-4.7,19.43-4.7c8.21,0,15.35,1.64,21.42,4.91s10.79,8.46,14.21,15.57c3.41,7.1,5.05,16.43,4.91,28v58.5h-16.72v-53.48c0-10.31-1.18-18.18-3.55-23.62-2.37-5.43-5.64-9.16-9.82-11.17-4.18-2.02-8.92-3.04-14.21-3.04-9.19,0-16.33,3.24-21.42,9.72-5.08,6.48-7.63,15.63-7.63,27.48v54.11h-16.71Z"/>
    <path class="st1" d="M848.4,357.47c-6.69,0-12.79-.66-18.29-1.98-5.5-1.33-10.17-2.79-13.99-4.39-3.83-1.61-6.59-2.97-8.25-4.08l6.27-13.58c1.81.97,4.39,2.19,7.73,3.66,3.35,1.46,7.28,2.71,11.81,3.76,4.52,1.05,9.37,1.57,14.52,1.57,6.68,0,12.71-1.36,18.07-4.08,5.36-2.71,9.54-6.96,12.53-12.74s4.5-13.19,4.5-22.25v-11.08c-3.77,6.27-8.71,11.18-14.83,14.73s-13.02,5.33-20.68,5.33c-9.33,0-17.56-2.23-24.65-6.69-7.11-4.45-12.64-10.69-16.61-18.69s-5.95-17.16-5.95-27.48,1.98-19.88,5.95-27.89,9.5-14.24,16.61-18.69c7.1-4.46,15.32-6.69,24.65-6.69,7.66,0,14.55,1.74,20.68,5.22,6.13,3.49,11.07,8.43,14.83,14.83v-17.55h16.71v94.43c0,11.98-2.23,22.01-6.69,30.09-4.45,8.08-10.58,14.14-18.38,18.18-7.8,4.04-16.65,6.06-26.53,6.06ZM851.74,297.93c6.13,0,11.55-1.67,16.3-5.02,4.73-3.34,8.42-7.91,11.07-13.69,2.64-5.77,3.97-12.5,3.97-20.16s-1.36-13.97-4.07-19.75c-2.72-5.77-6.41-10.3-11.08-13.58s-10.13-4.91-16.4-4.91-12.36,1.64-17.44,4.91-9.05,7.8-11.91,13.58c-2.86,5.78-4.28,12.37-4.28,19.75s1.46,14.38,4.4,20.16c2.92,5.78,6.92,10.35,12.01,13.69,5.08,3.34,10.89,5.02,17.44,5.02Z"/>
  </g>
</svg>