<svg width="1000" height="600" viewBox="0 0 1000 600" fill="none" xmlns="http://www.w3.org/2000/svg">
<path d="M706.593 522.835V473.604L806.975 375.143H707.529V325.912H882.417V375.143L782.036 473.604H881.482V522.835H706.593Z" fill="#F2F3F4"/>
<path d="M486.813 522.835V325.912H539.318L612.825 434.22V325.912H662.637V522.835H612.825L536.626 410.589V522.835H486.813Z" fill="#F2F3F4"/>
<path d="M302.198 522.835V325.912H440.789V373.736H356.866V401.024H424.831V447.442H356.866V475.011H442.857V522.835H302.198Z" fill="#F2F3F4"/>
<path d="M117.582 522.835V325.912H172.597V475.011H258.242V522.835H117.582Z" fill="#F2F3F4"/>
<path d="M822.494 281.956C812.903 281.956 803.509 280.735 794.31 278.294C785.111 275.665 776.695 272.096 769.062 267.589C761.624 263.082 755.459 258.011 750.566 252.377C745.673 246.555 742.737 240.451 741.758 234.066L795.778 219.699C797.539 224.394 800.573 228.432 804.879 231.812C809.185 235.005 814.763 236.789 821.613 237.165C827.093 237.352 831.889 235.944 835.999 232.939C840.305 229.934 842.458 225.99 842.458 221.107C842.458 217.915 841.185 214.91 838.641 212.093C836.292 209.088 832.476 206.928 827.191 205.613L796.365 198.007C785.796 195.378 776.695 191.34 769.062 185.894C761.624 180.448 755.85 173.78 751.74 165.893C747.826 158.005 745.869 149.178 745.869 139.412C745.869 120.068 752.523 105.044 765.832 94.339C779.337 83.4463 798.224 78 822.494 78C835.412 78 846.764 79.5963 856.55 82.789C866.531 85.9817 875.046 91.0524 882.092 98.0012C889.333 104.762 895.303 113.683 900 124.763L846.274 139.694C845.296 135.938 842.751 132.182 838.641 128.426C834.727 124.669 829.344 122.791 822.494 122.791C815.839 122.791 810.653 124.2 806.934 127.017C803.411 129.834 801.649 133.966 801.649 139.412C801.649 142.793 803.117 145.798 806.053 148.427C808.989 150.868 813.197 152.746 818.677 154.061L849.797 161.667C865.455 165.423 877.688 172.841 886.495 183.922C895.303 194.815 899.707 207.304 899.707 221.389C899.707 234.348 896.575 245.334 890.312 254.349C884.244 263.363 875.437 270.218 863.889 274.913C852.342 279.608 838.543 281.956 822.494 281.956Z" fill="#F2F3F4"/>
<path d="M609.304 281.956C591.136 281.956 575.507 278.71 562.418 272.217C549.328 265.724 539.267 256.462 532.234 244.43C525.397 232.208 521.978 217.695 521.978 200.889V78H576.19V200.889C576.19 207.573 577.558 213.302 580.293 218.077C583.028 222.851 586.838 226.479 591.722 228.962C596.801 231.444 602.857 232.686 609.89 232.686C616.923 232.686 622.979 231.444 628.059 228.962C633.138 226.479 636.948 222.851 639.487 218.077C642.222 213.302 643.59 207.573 643.59 200.889V78H697.802V200.889C697.802 217.695 694.286 232.208 687.253 244.43C680.22 256.462 670.061 265.724 656.777 272.217C643.687 278.71 627.863 281.956 609.304 281.956Z" fill="#F2F3F4"/>
<path d="M385.108 281.956C365.459 281.956 348.055 277.637 332.897 268.998C317.926 260.171 306.136 248.151 297.528 232.939C288.92 217.539 284.615 199.885 284.615 179.978C284.615 160.071 288.92 142.511 297.528 127.299C306.136 111.899 317.926 99.8793 332.897 91.2402C348.055 82.4134 365.459 78 385.108 78C400.266 78 413.927 80.6293 426.091 85.8878C438.255 91.1463 448.735 98.4707 457.53 107.861C466.326 117.251 473.063 128.144 477.741 140.539L428.337 156.315C425.717 150.117 422.349 144.765 418.232 140.257C414.114 135.562 409.249 131.994 403.635 129.552C398.208 127.111 392.032 125.89 385.108 125.89C375.938 125.89 367.798 128.238 360.687 132.933C353.575 137.44 347.961 143.732 343.844 151.807C339.914 159.883 337.95 169.273 337.95 179.978C337.95 190.495 340.008 199.885 344.125 208.149C348.242 216.224 353.856 222.61 360.967 227.305C368.266 231.812 376.593 234.066 385.95 234.066C393.249 234.066 399.518 232.845 404.758 230.404C410.185 227.774 414.769 224.206 418.512 219.699C422.442 215.004 425.811 209.557 428.618 203.36L478.022 219.135C473.531 231.53 466.887 242.517 458.092 252.095C449.296 261.485 438.723 268.81 426.372 274.068C414.021 279.327 400.266 281.956 385.108 281.956Z" fill="#F2F3F4"/>
<path d="M100 281.956V78H240.659V127.532H154.326V157.251H221.866V206.784H154.326V281.956H100Z" fill="#F2F3F4"/>
<rect x="170.33" y="78" width="203.956" height="203.956" rx="100" fill="black" fill-opacity="0.01"/>
</svg>
