<?xml version="1.0" encoding="UTF-8"?>
<svg id="greeting" xmlns="http://www.w3.org/2000/svg" version="1.1" viewBox="0 0 1000 500">
  <!-- Generator: Adobe Illustrator 30.1.0, SVG Export Plug-In . SVG Version: 2.1.1 Build 136)  -->
  <defs>
    <style>
      .st0 {
        fill: none;
      }

      .st1 {
        fill: #f2f3f4;
      }
    </style>
  </defs>
  <rect class="st0" x="450" y="200" width="100" height="100"/>
  <g>
    <path class="st1" d="M100,353.43v-146.93h22.05l1.17,20.57c4.51-7.83,10.28-13.81,17.34-17.92,7.05-4.11,15.28-6.17,24.68-6.17,11.75,0,21.8,2.75,30.12,8.23,8.32,5.49,14.35,13.81,18.08,24.98,4.11-10.77,10.14-19,18.07-24.68,7.94-5.68,17.39-8.53,28.36-8.53,16.45,0,29.43,5.49,38.93,16.45,9.49,10.98,14.15,27.62,13.95,49.96v84.05h-23.51v-75.22c0-14.5-1.52-25.58-4.56-33.22-3.04-7.64-7.1-12.88-12.2-15.71-5.09-2.85-10.96-4.27-17.62-4.27-11.56,0-20.57,4.56-27.03,13.67-6.47,9.11-9.7,21.99-9.7,38.64v76.11h-23.51v-75.22c0-14.5-1.52-25.58-4.56-33.22-3.04-7.64-7.15-12.88-12.34-15.71-5.2-2.85-11.12-4.27-17.78-4.27-11.37,0-20.28,4.56-26.75,13.67-6.46,9.11-9.7,21.99-9.7,38.64v76.11h-23.51Z"/>
    <path class="st1" d="M785.87,356.96c-17.24,0-30.71-3.97-40.4-11.9-9.7-7.94-14.54-18.96-14.54-33.06,0-14.89,4.94-26.31,14.84-34.23,9.89-7.94,23.75-11.91,41.57-11.91h40.84c-.98-13.91-4.4-24.33-10.28-31.29-5.87-6.95-14.7-10.43-26.45-10.43-8.04,0-14.93,1.61-20.71,4.84-5.79,3.23-10.53,8.37-14.25,15.42l-21.16-8.23c3.72-6.85,8.23-12.78,13.52-17.78,5.28-4.99,11.45-8.81,18.51-11.45,7.05-2.64,15.08-3.97,24.09-3.97,13.71,0,25.03,2.69,33.95,8.08,8.91,5.39,15.62,13.32,20.12,23.81,4.51,10.47,6.66,23.46,6.47,38.93l-.3,79.63h-21.74l-1.18-19.69c-4.3,7.45-10.09,13.18-17.34,17.19-7.25,4.02-15.77,6.03-25.56,6.03ZM787.06,336.39c8.42,0,15.76-1.82,22.04-5.44,6.27-3.62,11.11-8.76,14.54-15.42,3.43-6.66,5.14-14.7,5.14-24.11v-5.87h-36.13c-13.71,0-23.47,2.25-29.25,6.76-5.78,4.51-8.67,10.98-8.67,19.39,0,7.64,2.85,13.67,8.53,18.08,5.68,4.4,13.62,6.61,23.81,6.61Z"/>
    <path class="st1" d="M876.49,353.43v-205.69h23.51v205.69h-23.51Z"/>
    <g>
      <path class="st1" d="M459.63,231.78c-4.81-10-11.45-17.29-19.98-21.89-8.53-4.6-18.57-6.91-30.12-6.91-10.39,0-19.5,2.2-27.33,6.61-7.7,4.34-13.95,10.56-18.81,18.58v-21.67h-23.51v146.93h23.51v-76.11c0-16.66,3.58-29.53,10.73-38.64,7.15-9.11,17.19-13.67,30.12-13.67,7.45,0,14.11,1.42,19.99,4.27,5.87,2.83,10.47,8.07,13.81,15.71,3.32,7.64,4.99,18.71,4.99,33.22v75.22h23.52v-82.28c.19-16.26-2.12-29.39-6.91-39.37Z"/>
      <path class="st1" d="M351.94,172.42c4.11,0,7.59-1.47,10.43-4.4,2.85-2.94,4.27-6.37,4.27-10.29s-1.42-7.58-4.27-10.43-6.31-4.26-10.43-4.26-7.35,1.42-10.28,4.26c-2.94,2.85-4.41,6.31-4.41,10.43s1.47,7.35,4.41,10.29c2.93,2.93,6.36,4.4,10.28,4.4Z"/>
    </g>
    <g>
      <path class="st1" d="M692.48,219.43c-9.51-10.96-22.48-16.45-38.93-16.45-10.98,0-20.42,2.85-28.36,8.53-7.93,5.68-13.95,13.91-18.07,24.68-3.73-11.17-9.76-19.49-18.08-24.98-8.32-5.48-18.37-8.23-30.12-8.23-9.4,0-17.62,2.06-24.68,6.17-6.92,4.04-12.58,9.92-17.05,17.54v-20.18h-23.51v146.93h23.51v-76.11c0-16.66,3.24-29.53,9.7-38.64,6.47-9.11,15.38-13.67,26.75-13.67,6.66,0,12.58,1.42,17.78,4.27,5.19,2.83,9.3,8.07,12.34,15.71s4.56,18.71,4.56,33.22v75.22h23.51v-76.11c0-16.66,3.23-29.53,9.7-38.64,6.47-9.11,15.47-13.67,27.03-13.67,6.66,0,12.53,1.42,17.62,4.27,5.09,2.83,9.16,8.07,12.2,15.71,3.04,7.64,4.56,18.71,4.56,33.22v75.22h23.51v-84.05c.19-22.34-4.46-38.98-13.95-49.96Z"/>
      <path class="st1" d="M505.74,172.42c4.11,0,7.59-1.47,10.43-4.4,2.85-2.94,4.27-6.37,4.27-10.29s-1.42-7.58-4.27-10.43c-2.83-2.83-6.31-4.26-10.43-4.26s-7.35,1.42-10.28,4.26c-2.94,2.85-4.41,6.31-4.41,10.43s1.47,7.35,4.41,10.29,6.36,4.4,10.28,4.4Z"/>
    </g>
  </g>
</svg>