<?xml version="1.0" encoding="UTF-8"?>
<svg id="_レイヤー_1" xmlns="http://www.w3.org/2000/svg" version="1.1" viewBox="0 0 1000 500">
  <!-- Generator: Adobe Illustrator 30.1.0, SVG Export Plug-In . SVG Version: 2.1.1 Build 136)  -->
  <defs>
    <style>
      .st0 {
        fill: none;
        stroke: #222;
        stroke-linecap: round;
        stroke-linejoin: round;
        stroke-width: 40px;
      }
    </style>
  </defs>
  <path class="st0" d="M268.46,319.78h0c-38.54,38.54-101.02,38.54-139.55,0h0c-38.54-38.54-38.54-101.02,0-139.55h0c38.54-38.54,101.02-38.54,139.55,0h0"/>
  <path class="st0" d="M514.45,250h0c0,54.5-44.18,98.68-98.68,98.68h0c-54.5,0-98.68-44.18-98.68-98.68h0c0-54.5,44.18-98.68,98.68-98.68h0"/>
  <path class="st0" d="M613.13,348.68h0c-54.5,0-98.68-44.18-98.68-98.68h0c0-54.5,44.18-98.68,98.68-98.68h0c54.5,0,98.68,44.18,98.68,98.68h0"/>
  <path class="st0" d="M760.45,180.22h0c38.54-38.54,101.02-38.54,139.55,0h0l-69.78,69.78-69.78,69.78h0c38.54,38.54,101.02,38.54,139.55,0h0"/>
</svg>