<?xml version="1.0" encoding="UTF-8"?>
<svg id="_レイヤー_1" data-name="レイヤー 1" xmlns="http://www.w3.org/2000/svg" viewBox="0 0 688.57 200">
  <defs>
    <style>
      .cls-1 {
        fill: none;
        stroke: #222;
        stroke-linecap: round;
        stroke-linejoin: round;
        stroke-width: 40px;
      }
    </style>
  </defs>
  <path class="cls-1" d="M156.57,156.57h0c-31.24,31.24-81.9,31.24-113.14,0h0c-31.24-31.24-31.24-81.9,0-113.14h0c31.24-31.24,81.9-31.24,113.14,0h0"/>
  <path class="cls-1" d="M356,100h0c0,44.18-35.82,80-80,80h0c-44.18,0-80-35.82-80-80h0c0-44.18,35.82-80,80-80h0"/>
  <path class="cls-1" d="M436,180h0c-44.18,0-80-35.82-80-80h0c0-44.18,35.82-80,80-80h0c44.18,0,80,35.82,80,80h0"/>
  <path class="cls-1" d="M555.43,43.43h0c31.24-31.24,81.9-31.24,113.14,0h0s-56.57,56.57-56.57,56.57l-56.57,56.57h0c31.24,31.24,81.9,31.24,113.14,0h0"/>
</svg>